<?xml version="1.0" encoding="UTF-8"?>
<svg xmlns="http://www.w3.org/2000/svg" xmlns:xlink="http://www.w3.org/1999/xlink" viewBox="0 0 96 96" width="96px" height="96px">
<g id="surface40227981">
<path style=" stroke:none;fill-rule:nonzero;fill:rgb(100%,100%,100%);fill-opacity:1;" d="M 25.5 22.5 C 24.730469 22.5 23.964844 22.792969 23.378906 23.378906 C 22.207031 24.550781 22.207031 26.449219 23.378906 27.621094 L 43.757812 48 L 23.378906 68.378906 C 22.207031 69.550781 22.207031 71.449219 23.378906 72.621094 C 23.964844 73.207031 24.730469 73.5 25.5 73.5 C 26.269531 73.5 27.035156 73.207031 27.621094 72.621094 L 48 52.242188 L 68.378906 72.621094 C 68.964844 73.207031 69.730469 73.5 70.5 73.5 C 71.269531 73.5 72.035156 73.207031 72.621094 72.621094 C 73.792969 71.449219 73.792969 69.550781 72.621094 68.378906 L 52.242188 48 L 72.621094 27.621094 C 73.792969 26.449219 73.792969 24.550781 72.621094 23.378906 C 71.449219 22.207031 69.550781 22.207031 68.378906 23.378906 L 48 43.757812 L 27.621094 23.378906 C 27.035156 22.792969 26.269531 22.5 25.5 22.5 Z M 25.5 22.5 "/>
</g>
</svg>
