<?xml version="1.0" encoding="UTF-8"?>
<svg xmlns="http://www.w3.org/2000/svg" xmlns:xlink="http://www.w3.org/1999/xlink" viewBox="0 0 96 96" width="96px" height="96px">
<g id="surface39870872">
<path style=" stroke:none;fill-rule:nonzero;fill:rgb(100%,100%,100%);fill-opacity:1;" d="M 73.5 75 L 22.5 75 C 17.535156 75 13.5 70.964844 13.5 66 L 13.5 30 C 13.5 25.035156 17.535156 21 22.5 21 L 73.5 21 C 78.464844 21 82.5 25.035156 82.5 30 L 82.5 66 C 82.5 70.964844 78.464844 75 73.5 75 Z M 45.75 55.5 C 44.507812 55.5 43.5 56.507812 43.5 57.75 C 43.5 57.9375 43.5 58.320312 43.5 58.5 L 29.25 58.5 C 28.003906 58.5 27 59.503906 27 60.75 C 27 61.996094 28.003906 63 29.25 63 L 43.5 63 C 43.5 63.214844 43.5 63.5625 43.5 63.75 C 43.5 64.992188 44.507812 66 45.75 66 C 46.992188 66 48 64.992188 48 63.75 L 48 57.75 C 48 56.507812 46.992188 55.5 45.75 55.5 Z M 66.75 58.5 L 51 58.5 L 51 63 L 66.75 63 C 67.996094 63 69 61.996094 69 60.75 C 69 59.503906 67.996094 58.5 66.75 58.5 Z M 35.25 33 C 30.722656 33 27 36.722656 27 41.25 C 27 45.777344 30.722656 49.5 35.25 49.5 C 39.777344 49.5 43.5 45.777344 43.5 41.25 L 35.25 41.25 Z M 69 45.75 C 69 44.507812 67.992188 43.5 66.75 43.5 L 51.75 43.5 C 50.507812 43.5 49.5 44.507812 49.5 45.75 C 49.5 46.992188 50.507812 48 51.75 48 L 66.75 48 C 67.992188 48 69 46.992188 69 45.75 Z M 69 36.75 C 69 35.507812 67.992188 34.5 66.75 34.5 L 51.75 34.5 C 50.507812 34.5 49.5 35.507812 49.5 36.75 C 49.5 37.992188 50.507812 39 51.75 39 L 66.75 39 C 67.992188 39 69 37.992188 69 36.75 Z M 69 36.75 "/>
</g>
</svg>
