<?xml version="1.0" encoding="UTF-8"?>
<svg xmlns="http://www.w3.org/2000/svg" xmlns:xlink="http://www.w3.org/1999/xlink" viewBox="0 0 96 96" width="96px" height="96px">
<g id="surface40015149">
<path style=" stroke:none;fill-rule:nonzero;fill:rgb(100%,100%,100%);fill-opacity:1;" d="M 65.558594 15.929688 C 67.679688 16.933594 69 19.011719 69 21.355469 L 69 74.929688 C 69 77.230469 67.71875 79.289062 65.65625 80.308594 C 64.808594 80.726562 63.898438 80.933594 62.992188 80.933594 C 61.707031 80.933594 60.429688 80.515625 59.355469 79.695312 L 39.484375 64.5 L 33 64.5 C 28.863281 64.5 25.5 61.136719 25.5 57 L 25.5 40.5 C 25.5 36.363281 28.863281 33 33 33 L 39.421875 33 L 59.183594 16.726562 C 60.996094 15.234375 63.441406 14.929688 65.558594 15.929688 Z M 65.558594 15.929688 "/>
</g>
</svg>
