<?xml version="1.0" encoding="UTF-8"?>
<svg xmlns="http://www.w3.org/2000/svg" xmlns:xlink="http://www.w3.org/1999/xlink" viewBox="0 0 96 96" width="96px" height="96px">
<g id="surface39814401">
<path style=" stroke:none;fill-rule:nonzero;fill:rgb(100%,100%,100%);fill-opacity:1;" d="M 34.5 15 C 36.15625 15 37.5 16.34375 37.5 18 L 37.5 78 C 37.5 79.65625 36.15625 81 34.5 81 C 32.84375 81 31.5 79.65625 31.5 78 L 31.5 18 C 31.5 16.34375 32.84375 15 34.5 15 Z M 61.5 15 C 63.15625 15 64.5 16.34375 64.5 18 L 64.5 78 C 64.5 79.65625 63.15625 81 61.5 81 C 59.84375 81 58.5 79.65625 58.5 78 L 58.5 18 C 58.5 16.34375 59.84375 15 61.5 15 Z M 61.5 15 "/>
</g>
</svg>
