<?xml version="1.0" encoding="UTF-8"?>
<svg xmlns="http://www.w3.org/2000/svg" xmlns:xlink="http://www.w3.org/1999/xlink" viewBox="0 0 96 96" width="96px" height="96px">
<g id="surface40033749">
<path style=" stroke:none;fill-rule:nonzero;fill:rgb(100%,100%,100%);fill-opacity:1;" d="M 81.582031 13.625 C 81.402344 13.640625 81.21875 13.675781 81.039062 13.738281 L 68.050781 18.066406 C 66.824219 18.476562 66 19.621094 66 20.914062 L 66 51.578125 C 66 55.800781 63.4375 56.4375 57.335938 57.789062 C 51.105469 59.167969 48 61.03125 48 66.117188 C 48 71.628906 52.539062 75 59.160156 75 C 65.875 75 72 70.5 72 58.5 L 72 35.296875 C 72 34.367188 72.578125 33.53125 73.449219 33.199219 L 82.074219 29.898438 C 83.234375 29.457031 84 28.339844 84 27.097656 L 84 15.871094 C 84 14.527344 82.847656 13.527344 81.582031 13.625 Z M 19.5 21 C 17.84375 21 16.5 22.34375 16.5 24 C 16.5 25.65625 17.84375 27 19.5 27 L 61.5 27 L 61.5 21 Z M 19.5 33 C 17.84375 33 16.5 34.34375 16.5 36 C 16.5 37.65625 17.84375 39 19.5 39 L 61.5 39 L 61.5 33 Z M 19.5 45 C 17.84375 45 16.5 46.34375 16.5 48 C 16.5 49.65625 17.84375 51 19.5 51 L 61.5 51 L 61.5 45 Z M 19.496094 57 C 17.839844 57 16.5 58.34375 16.5 60 C 16.5 61.65625 17.84375 63 19.5 63 L 43.839844 63 C 44.453125 60.292969 45.855469 58.378906 47.570312 57 Z M 19.5 69 C 17.84375 69 16.5 70.34375 16.5 72 C 16.5 73.65625 17.84375 75 19.5 75 L 47.066406 75 C 45.445312 73.355469 44.316406 71.324219 43.808594 69 Z M 19.5 69 "/>
</g>
</svg>
