<?xml version="1.0" encoding="UTF-8"?>
<svg xmlns="http://www.w3.org/2000/svg" xmlns:xlink="http://www.w3.org/1999/xlink" viewBox="0 0 96 96" width="96px" height="96px">
<g id="surface40007521">
<path style=" stroke:none;fill-rule:nonzero;fill:rgb(100%,100%,100%);fill-opacity:1;" d="M 75 48 C 76.65625 48 78 49.34375 78 51 L 78 60 C 78 65.789062 73.289062 70.5 67.5 70.5 L 34.5 70.5 L 34.5 76.320312 C 34.5 77.660156 32.992188 78.449219 31.890625 77.6875 L 19.140625 68.867188 C 18.183594 68.203125 18.183594 66.792969 19.140625 66.132812 L 31.890625 57.3125 C 32.992188 56.546875 34.5 57.335938 34.5 58.679688 L 34.5 64.5 L 67.5 64.5 C 69.980469 64.5 72 62.480469 72 60 L 72 51 C 72 49.34375 73.34375 48 75 48 Z M 76.859375 27.132812 C 77.816406 27.792969 77.816406 29.207031 76.859375 29.867188 L 64.109375 38.6875 C 63.007812 39.453125 61.5 38.664062 61.5 37.320312 L 61.5 31.5 L 28.5 31.5 C 26.019531 31.5 24 33.519531 24 36 L 24 45 C 24 46.65625 22.65625 48 21 48 C 19.34375 48 18 46.65625 18 45 L 18 36 C 18 30.210938 22.710938 25.5 28.5 25.5 L 61.5 25.5 L 61.5 19.679688 C 61.5 18.335938 63.007812 17.546875 64.109375 18.308594 Z M 76.859375 27.132812 "/>
</g>
</svg>
