<?xml version="1.0" encoding="UTF-8"?>
<svg xmlns="http://www.w3.org/2000/svg" xmlns:xlink="http://www.w3.org/1999/xlink" viewBox="0 0 96 96" width="96px" height="96px">
<g id="surface39998614">
<path style=" stroke:none;fill-rule:nonzero;fill:rgb(100%,100%,100%);fill-opacity:1;" d="M 68.308594 13.496094 C 66.742188 13.46875 65.191406 13.992188 63.917969 15.027344 L 30 39.269531 L 30 16.5 C 30 14.84375 28.65625 13.5 27 13.5 C 25.34375 13.5 24 14.84375 24 16.5 L 24 76.5 C 24 78.15625 25.34375 79.5 27 79.5 C 28.65625 79.5 30 78.15625 30 76.5 L 30 53.730469 L 63.917969 77.972656 C 65.164062 78.984375 66.664062 79.507812 68.195312 79.507812 C 69.171875 79.507812 70.160156 79.289062 71.097656 78.855469 C 73.503906 77.738281 75 75.410156 75 72.777344 L 75 20.222656 C 75 17.589844 73.503906 15.261719 71.097656 14.144531 C 70.195312 13.726562 69.25 13.511719 68.308594 13.496094 Z M 68.308594 13.496094 "/>
</g>
</svg>
