<?xml version="1.0" encoding="UTF-8"?>
<svg xmlns="http://www.w3.org/2000/svg" xmlns:xlink="http://www.w3.org/1999/xlink" viewBox="0 0 96 96" width="96px" height="96px">
<g id="surface40008672">
<path style=" stroke:none;fill-rule:nonzero;fill:rgb(100%,100%,100%);fill-opacity:1;" d="M 69.234375 18.015625 C 68.34375 17.976562 67.5 18.671875 67.5 19.679688 L 67.5 25.5 L 63.261719 25.5 C 59.746094 25.5 56.480469 27.246094 54.527344 30.175781 L 47.625 40.53125 L 40.722656 30.175781 C 38.769531 27.246094 35.503906 25.5 31.984375 25.5 L 21 25.5 C 19.34375 25.5 18 26.84375 18 28.5 C 18 30.15625 19.34375 31.5 21 31.5 L 31.984375 31.5 C 33.492188 31.5 34.894531 32.25 35.730469 33.503906 L 44.019531 45.9375 L 34.980469 59.496094 C 34.144531 60.75 32.742188 61.5 31.234375 61.5 L 21 61.5 C 19.34375 61.5 18 62.84375 18 64.5 C 18 66.15625 19.34375 67.5 21 67.5 L 31.234375 67.5 C 34.753906 67.5 38.019531 65.753906 39.972656 62.824219 L 47.625 51.347656 L 55.277344 62.824219 C 57.230469 65.753906 60.496094 67.5 64.011719 67.5 L 67.5 67.5 L 67.5 73.320312 C 67.5 74.664062 69.003906 75.453125 70.105469 74.691406 L 82.859375 65.867188 C 83.816406 65.207031 83.816406 63.792969 82.859375 63.132812 L 70.105469 54.3125 C 69.003906 53.546875 67.5 54.335938 67.5 55.679688 L 67.5 61.5 L 64.011719 61.5 C 62.507812 61.5 61.105469 60.75 60.269531 59.496094 L 51.230469 45.9375 L 59.519531 33.503906 C 60.355469 32.25 61.757812 31.5 63.261719 31.5 L 67.5 31.5 L 67.5 37.320312 C 67.5 38.664062 69.003906 39.453125 70.105469 38.691406 L 82.859375 29.867188 C 83.816406 29.207031 83.816406 27.792969 82.859375 27.132812 L 70.105469 18.3125 C 69.832031 18.121094 69.53125 18.027344 69.234375 18.015625 Z M 69.234375 18.015625 "/>
</g>
</svg>
