<?xml version="1.0" encoding="UTF-8"?>
<svg xmlns="http://www.w3.org/2000/svg" xmlns:xlink="http://www.w3.org/1999/xlink" viewBox="0 0 96 96" width="96px" height="96px">
<g id="surface39856809">
<path style=" stroke:none;fill-rule:nonzero;fill:rgb(100%,100%,100%);fill-opacity:1;" d="M 78.238281 13.5 C 77.660156 13.515625 77.082031 13.703125 76.574219 14.066406 C 75.230469 15.035156 74.925781 16.910156 75.894531 18.253906 C 82.097656 26.859375 85.375 37.03125 85.375 47.667969 C 85.375 57.359375 82.621094 66.769531 77.402344 74.875 C 76.507812 76.269531 76.910156 78.125 78.300781 79.023438 C 78.804688 79.34375 79.367188 79.5 79.921875 79.5 C 80.90625 79.5 81.875 79.015625 82.445312 78.125 C 88.289062 69.046875 91.375 58.511719 91.375 47.667969 C 91.375 35.761719 87.707031 24.378906 80.765625 14.746094 C 80.160156 13.90625 79.199219 13.472656 78.238281 13.5 Z M 43.585938 15.347656 C 42.195312 15.324219 40.816406 15.792969 39.683594 16.726562 L 19.921875 33 L 13.5 33 C 9.363281 33 6 36.363281 6 40.5 L 6 57 C 6 61.136719 9.363281 64.5 13.5 64.5 L 19.984375 64.5 L 39.855469 79.695312 C 40.929688 80.515625 42.203125 80.933594 43.492188 80.933594 C 44.394531 80.933594 45.308594 80.730469 46.15625 80.308594 C 48.21875 79.289062 49.5 77.230469 49.5 74.929688 L 49.5 21.355469 C 49.5 19.011719 48.179688 16.933594 46.0625 15.929688 C 45.265625 15.554688 44.421875 15.363281 43.589844 15.347656 Z M 67.648438 21.945312 C 67.070312 21.964844 66.492188 22.148438 65.988281 22.511719 C 64.644531 23.480469 64.339844 25.355469 65.308594 26.699219 C 69.660156 32.738281 71.960938 39.871094 71.960938 47.339844 C 71.960938 54.144531 70.023438 60.742188 66.367188 66.429688 C 65.472656 67.824219 65.875 69.683594 67.269531 70.578125 C 67.769531 70.902344 68.332031 71.054688 68.890625 71.054688 C 69.875 71.054688 70.839844 70.566406 71.410156 69.675781 C 75.695312 63.015625 77.960938 55.296875 77.960938 47.339844 C 77.960938 38.605469 75.269531 30.253906 70.175781 23.191406 C 69.570312 22.351562 68.613281 21.917969 67.648438 21.945312 Z M 58.496094 31.644531 C 58.109375 31.660156 57.714844 31.753906 57.34375 31.929688 C 55.847656 32.644531 55.210938 34.433594 55.925781 35.929688 C 57.507812 39.253906 58.308594 42.816406 58.308594 46.53125 C 58.308594 50.222656 57.515625 53.769531 55.953125 57.078125 C 55.242188 58.574219 55.882812 60.363281 57.378906 61.070312 C 57.792969 61.265625 58.230469 61.359375 58.660156 61.359375 C 59.785156 61.359375 60.863281 60.726562 61.375 59.640625 C 63.320312 55.527344 64.304688 51.117188 64.304688 46.53125 C 64.304688 41.917969 63.3125 37.484375 61.339844 33.351562 C 60.808594 32.230469 59.664062 31.59375 58.496094 31.644531 Z M 58.496094 31.644531 "/>
</g>
</svg>
